<svg width="510" height="168" viewBox="0 0 510 168" fill="none" xmlns="http://www.w3.org/2000/svg">
<path d="M212.7 111.779L212.7 111.779C211.51 110.759 210.827 109.689 210.764 108.567L212.7 111.779ZM212.7 111.779L212.706 111.784C214 112.843 215.823 113.348 218.127 113.348H223.169H223.506V113.011V112.349V112.012H223.169H220.637L219.758 111.852L219.742 111.849L219.725 111.848C219.201 111.804 218.618 111.45 217.984 110.66C217.436 109.857 217.141 108.697 217.141 107.142V81.2684C217.141 78.5094 216.436 76.2249 215 74.4438L215 74.4438L214.996 74.4383C214.056 73.3223 212.582 72.4971 210.62 71.9357C208.701 71.3157 206.211 71.0119 203.165 71.0119C200.049 71.0119 197.192 72.0903 194.603 74.2289C192.533 75.8944 190.976 77.6791 189.946 79.5855V71.6796V71.3425H189.608H183.822H183.485V71.6796V113.011V113.348H183.822H189.608H189.946V113.011V83.6656C189.946 81.6012 191.268 79.2046 194.06 76.4668L194.063 76.4645C196.819 73.7084 199.904 72.3474 203.33 72.3474C205.001 72.3474 206.378 72.6165 207.476 73.1378C209.56 74.2605 210.681 76.8709 210.681 81.1858V107.142V107.152L210.681 107.161L210.764 108.566L212.7 111.779ZM178.274 58.9337L178.585 59.0532L178.708 58.7443L179.039 57.9177L179.172 57.5857L178.833 57.4726C173.18 55.5884 167.606 54.6448 162.111 54.6448C156.664 54.6448 152.517 55.9224 149.73 58.5373C146.954 61.0875 145.572 64.4321 145.572 68.5385C145.572 73.7196 147.721 77.7384 152.004 80.557C153.894 81.8351 155.976 83.0006 158.249 84.0542L158.249 84.0543L158.256 84.057C160.516 85.0495 162.749 86.0144 164.955 86.9518L164.958 86.9529C167.204 87.8845 169.257 88.8972 171.115 89.9905C175.214 92.4172 177.232 95.7577 177.232 100.033C177.232 103.949 175.685 106.898 172.59 108.926C169.514 110.923 165.778 111.93 161.367 111.93C158.371 111.93 155.429 111.494 152.541 110.622C149.704 109.695 147.401 108.526 145.622 107.125L145.327 106.892L145.127 107.211L144.714 107.872L144.545 108.143L144.806 108.327C149.666 111.734 155.523 113.43 162.359 113.43C166.02 113.43 169.224 113.014 171.964 112.176L171.968 112.174C174.791 111.271 177.188 109.577 179.155 107.104C181.136 104.613 182.122 101.616 182.122 98.1315C182.122 94.6261 181.538 91.7296 180.348 89.4619C179.168 87.159 177.617 85.3504 175.691 84.0477C173.799 82.7678 171.715 81.6285 169.438 80.6291C167.172 79.6341 164.905 78.7495 162.638 77.9752C160.446 77.1532 158.421 76.2772 156.561 75.3474C152.462 73.1891 150.462 70.1787 150.462 66.3066C150.462 63.098 151.659 60.6108 154.048 58.8054C156.449 56.9911 159.812 56.063 164.178 56.063C168.592 56.063 173.291 57.0169 178.274 58.9337ZM225.272 76.8143L225.271 76.816C221.445 80.6984 219.553 86.1388 219.553 93.0891C219.553 100.033 221.387 105.238 225.119 108.631C228.829 112.004 233.626 113.678 239.481 113.678C245.402 113.678 250.286 111.748 254.103 107.875C257.985 103.993 259.905 98.5524 259.905 91.6012C259.905 84.657 258.071 79.452 254.339 76.0592C250.628 72.686 245.803 71.0119 239.894 71.0119C234.026 71.0119 229.143 72.9435 225.272 76.8143ZM229.914 77.833L229.916 77.831C232.616 74.1591 235.991 72.3474 240.059 72.3474C244.148 72.3474 247.411 73.901 249.88 77.0142C252.346 80.1234 253.609 84.9646 253.609 91.6012C253.609 98.1708 252.24 103.271 249.543 106.94C246.844 110.557 243.468 112.343 239.398 112.343C235.31 112.343 232.046 110.789 229.577 107.676C227.111 104.566 225.848 99.7524 225.848 93.1718C225.848 86.5451 227.218 81.446 229.914 77.833ZM316.225 71.9372L315.979 72.1834L316.233 72.4216C317.027 73.1657 317.449 74.2764 317.449 75.8127C317.449 77.3639 317.128 78.6815 316.501 79.7786L316.494 79.7912L316.488 79.8045L304.843 105.023L292.477 71.5628L292.396 71.3425H292.161H286.375H285.892L286.058 71.7956L289.069 80.0139L277.564 105.021L265.199 71.5628L265.117 71.3425H264.882H259.096H258.611L258.78 71.7972L274.155 113.128L274.237 113.348H274.471H275.298H275.515L275.605 113.15L289.815 81.9034L301.434 113.128L301.515 113.348H301.75H302.576H302.793L302.883 113.15L317.928 80.0855L317.931 80.0787C318.608 78.499 318.95 76.9385 318.95 75.3994C318.95 74.9875 318.892 74.5529 318.779 74.0969C318.711 73.5896 318.462 73.0517 318.069 72.488C317.901 72.2086 317.741 71.9757 317.59 71.7945C317.442 71.6161 317.282 71.4641 317.11 71.3781L316.893 71.2694L316.721 71.4412L316.225 71.9372Z" fill="white" stroke="white" stroke-width="0.674298"/>
<path d="M331.754 55.7447C333.305 53.3668 335.821 51.5247 339.314 51.3618L338.584 107.716V107.72C338.584 108.23 338.743 108.779 339.033 109.359C340.39 112.074 343.628 113.348 348.51 113.348H351.072H351.41V113.011V112.349V112.012H351.072H348.54L347.661 111.852L347.645 111.849L347.629 111.848C347.104 111.804 346.522 111.45 345.888 110.66C345.339 109.857 345.045 108.697 345.045 107.142V51.0968V50.7651L344.713 50.7597L339.661 50.6771L339.323 50.6715L339.322 50.6816C333.666 50.7834 329.483 52.1135 326.854 54.7423C324.168 57.3717 322.868 61.7548 322.868 67.7945V71.3425H321.47H321.133V71.6797V73.0152V73.3524H321.47H322.868V113.011V113.348H323.206H328.992H329.329V113.011V73.3524H335.522H335.859V73.0152V71.6797V71.3425H335.522H329.329V67.7945C329.329 62.134 330.157 58.1411 331.752 55.7476L331.754 55.7447ZM375.771 92.8046C374.643 92.7143 373.405 92.6693 372.058 92.6693C370.559 92.6693 368.924 92.7525 367.154 92.9183C363.59 93.1395 360.64 93.5548 358.312 94.1683C355.988 94.7806 354.251 95.5984 353.144 96.6468C352.079 97.6555 351.393 98.6172 351.149 99.5325C350.922 100.382 350.807 101.183 350.807 101.934C350.807 102.613 350.863 103.292 350.976 103.97C351.454 107.172 352.705 109.613 354.757 111.249C356.806 112.882 359.61 113.678 363.13 113.678C366.153 113.678 368.782 113.055 371.005 111.795C372.902 110.719 374.491 109.187 375.771 107.207V107.72C375.771 108.75 376.498 109.881 377.771 111.1C379.251 112.634 381.935 113.348 385.697 113.348H388.259H388.596V113.011V112.349V112.012H388.259H385.727L384.848 111.852L384.832 111.849L384.815 111.848C384.291 111.804 383.709 111.45 383.075 110.66C382.526 109.857 382.231 108.697 382.231 107.142V79.4499C382.231 77.5865 381.472 75.8288 379.997 74.1831C379.029 73.0984 377.57 72.3083 375.659 71.7883C373.747 71.268 371.359 71.0119 368.503 71.0119C363.381 71.0119 358.346 72.1535 353.4 74.4319L353.066 74.5859L353.249 74.9054L353.579 75.4841L353.746 75.7754L354.038 75.6103C355.267 74.9156 357.217 74.2079 359.91 73.4934L359.91 73.4935L359.914 73.4922C362.651 72.7259 365.016 72.3474 367.015 72.3474C369.028 72.3474 370.631 72.6201 371.84 73.1461L371.84 73.1463L371.852 73.1509C373.089 73.6351 373.901 74.2091 374.343 74.8474C374.823 75.541 375.195 76.2588 375.46 77.0008L375.465 77.015L375.471 77.0286C375.786 77.7105 375.866 78.2354 375.78 78.6287C375.723 78.8558 375.688 79.0581 375.688 79.2226C375.688 79.305 375.697 79.3985 375.729 79.4876C375.74 79.5163 375.753 79.5463 375.771 79.576V92.8046ZM357.432 103.889L357.431 103.884C357.377 103.342 357.35 102.857 357.35 102.43C357.35 100.064 357.968 98.2533 359.162 96.9545C359.743 96.3233 360.683 95.7684 362.02 95.3092C363.354 94.8513 365.057 94.497 367.136 94.2507C368.611 94.0868 370.087 94.0049 371.562 94.0049C372.989 94.0049 374.392 94.0523 375.771 94.147V103.82C375.612 105.559 374.424 107.437 372.086 109.448C369.83 111.382 367.289 112.343 364.453 112.343C362.331 112.343 360.717 111.644 359.565 110.273C358.402 108.887 357.677 106.776 357.432 103.889ZM395.625 51.0142V50.677H395.287H389.501H389.164V51.0142V113.011V113.348H389.501H395.287H395.625V113.011V93.2153L397.486 91.0777L412.533 113.2L412.633 113.348H412.812H418.598H419.235L418.877 112.821L401.252 86.9167L414.552 71.9032L415.049 71.3425H414.3H413.473H413.322L413.221 71.4559L395.625 91.2917V51.0142ZM451.021 110.067L450.893 109.769L450.59 109.885C446.337 111.521 441.475 112.343 435.997 112.343C432.194 112.343 429.124 110.797 426.761 107.683C424.456 104.574 423.274 99.6477 423.274 92.8411C423.274 91.3619 423.345 89.9313 423.488 88.5492H452.695H453.032V88.212V88.2104V88.2088V88.2072V88.2056V88.204V88.2024V88.2007V88.1991V88.1975V88.1959V88.1943V88.1927V88.1911V88.1894V88.1878V88.1862V88.1846V88.183V88.1814V88.1798V88.1781V88.1765V88.1749V88.1733V88.1717V88.1701V88.1685V88.1668V88.1652V88.1636V88.162V88.1604V88.1588V88.1572V88.1555V88.1539V88.1523V88.1507V88.1491V88.1475V88.1459V88.1442V88.1426V88.141V88.1394V88.1378V88.1362V88.1345V88.1329V88.1313V88.1297V88.1281V88.1265V88.1249V88.1232V88.1216V88.12V88.1184V88.1168V88.1152V88.1136V88.1119V88.1103V88.1087V88.1071V88.1055V88.1039V88.1023V88.1006V88.099V88.0974V88.0958V88.0942V88.0926V88.091V88.0893V88.0877V88.0861V88.0845V88.0829V88.0813V88.0797V88.078V88.0764V88.0748V88.0732V88.0716V88.07V88.0684V88.0667V88.0651V88.0635V88.0619V88.0603V88.0587V88.0571V88.0554V88.0538V88.0522V88.0506V88.049V88.0474V88.0457V88.0441V88.0425V88.0409V88.0393V88.0377V88.0361V88.0345V88.0328V88.0312V88.0296V88.028V88.0264V88.0248V88.0231V88.0215V88.0199V88.0183V88.0167V88.0151V88.0135V88.0118V88.0102V88.0086V88.007V88.0054V88.0038V88.0022V88.0005V87.9989V87.9973V87.9957V87.9941V87.9925V87.9909V87.9892V87.9876V87.986V87.9844V87.9828V87.9812V87.9796V87.9779V87.9763V87.9747V87.9731V87.9715V87.9699V87.9683V87.9666V87.965V87.9634V87.9618V87.9602V87.9586V87.957V87.9553V87.9537V87.9521V87.9505V87.9489V87.9473V87.9457V87.944V87.9424V87.9408V87.9392V87.9376V87.936V87.9344V87.9327V87.9311V87.9295V87.9279V87.9263V87.9247V87.923V87.9214V87.9198V87.9182V87.9166V87.915V87.9134V87.9117V87.9101V87.9085V87.9069V87.9053V87.9037V87.9021V87.9004V87.8988V87.8972V87.8956V87.894V87.8924V87.8908V87.8891V87.8875V87.8859V87.8843V87.8827V87.8811V87.8795V87.8778V87.8762V87.8746V87.873V87.8714V87.8698V87.8682V87.8665V87.8649V87.8633V87.8617V87.8601V87.8585V87.8569V87.8552V87.8536V87.852V87.8504V87.8488V87.8472V87.8456V87.8439V87.8423V87.8407V87.8391V87.8375V87.8359V87.8343V87.8326V87.831V87.8294V87.8278V87.8262V87.8246V87.823V87.8213V87.8197V87.8181V87.8165V87.8149V87.8133V87.8116V87.81V87.8084V87.8068V87.8052V87.8036V87.802V87.8004V87.7987V87.7971V87.7955V87.7939V87.7923V87.7907V87.789V87.7874V87.7858V87.7842V87.7826V87.781V87.7794V87.7777V87.7761V87.7745V87.7729V87.7713V87.7697V87.7681V87.7664V87.7648V87.7632V87.7616V87.76V87.7584V87.7568V87.7551V87.7535V87.7519V87.7503V87.7487V87.7471V87.7455V87.7438V87.7422V87.7406V87.739V87.7374V87.7358V87.7342V87.7325V87.7309V87.7293V87.7277V87.7261V87.7245V87.7229V87.7212V87.7196V87.718V87.7164V87.7148V87.7132V87.7116V87.7099V87.7083V87.7067V87.7051V87.7035V87.7019V87.7003V87.6986V87.697V87.6954V87.6938V87.6922V87.6906V87.6889V87.6873V87.6857V87.6841V87.6825V87.6809V87.6793V87.6776V87.676V87.6744V87.6728V87.6712V87.6696V87.668V87.6663V87.6647V87.6631V87.6615V87.6599V87.6583V87.6567V87.655V87.6534V87.6518V87.6502V87.6486V87.647V87.6454V87.6437V87.6421V87.6405V87.6389V87.6373V87.6357V87.6341V87.6324V87.6308V87.6292V87.6276V87.626V87.6244V87.6228V87.6211V87.6195V87.6179V87.6163V87.6147V87.6131V87.6115V87.6098V87.6082V87.6066V87.605V87.6034V87.6018V87.6002V87.5985V87.5969V87.5953V87.5937V87.5921V87.5905V87.5889V87.5872V87.5856V87.584V87.5824V87.5808V87.5792V87.5775V87.5759V87.5743V87.5727V87.5711V87.5695V87.5679V87.5662V87.5646V87.563V87.5614V87.5598V87.5582V87.5566V87.5549V87.5533V87.5517V87.5501V87.5485V87.5469V87.5453V87.5436V87.542V87.5404V87.5388V87.5372V87.5356V87.534V87.5323V87.5307V87.5291V87.5275V87.5259V87.5243V87.5227V87.521V87.5194V87.5178V87.5162V87.5146V87.513V87.5114V87.5097V87.5081V87.5065V87.5049V87.5033V87.5017V87.5001V87.4984V87.4968V87.4952V87.4936V87.492V87.4904V87.4888V87.4871V87.4855V87.4839V87.4823V87.4807V87.4791V87.4775V87.4758V87.4742V87.4726V87.471V87.4694V87.4678V87.4661V87.4645V87.4629V87.4613V87.4597V87.4581V87.4565V87.4548V87.4532V87.4516V87.45V87.4484V87.4468V87.4452V87.4435V87.4419V87.4403V87.4387V87.4371V87.4355V87.4339V87.4322V87.4306V87.429V87.4274V87.4258V87.4242V87.4226V87.4209V87.4193V87.4177V87.4161V87.4145V87.4129V87.4113V87.4096V87.408V87.4064V87.4048V87.4032V87.4016V87.4V87.3983V87.3967V87.3951V87.3935V87.3919V87.3903V87.3887V87.387V87.3854C453.032 82.028 451.467 77.9275 448.288 75.1457C445.134 72.386 441.25 71.0119 436.659 71.0119C430.952 71.0119 426.233 72.9458 422.528 76.8196C418.814 80.7023 416.978 86.1415 416.978 93.0891C416.978 100.029 418.727 105.232 422.291 108.626C425.835 112.001 430.414 113.678 435.997 113.678C441.598 113.678 446.627 112.819 451.081 111.093L451.406 110.967L451.269 110.646L451.021 110.067ZM443.75 76.0205C445.625 78.4169 446.637 82.1288 446.732 87.2136H423.656C424.338 82.5932 425.844 78.9869 428.148 76.3674C430.576 73.6701 433.3 72.3474 436.328 72.3474C439.362 72.3474 441.828 73.5649 443.75 76.0205Z" fill="white" stroke="white" stroke-width="0.674298"/>
<path d="M460.323 50.1465V52.3303H457.84V58.9745H455.483V52.3303H453V50.1465H460.323Z" fill="white"/>
<path d="M470 50.0142V59.0142H467.643V54.6465L465.916 56.698H465.211L463.484 54.6465V59.0142H461.127V50.0142H461.959L465.563 53.8524L469.168 50.0142H470Z" fill="white"/>
<path fill-rule="evenodd" clip-rule="evenodd" d="M80.4814 98.6316L80.4454 127.015L86.4454 127.022L86.4815 98.5069L97.4268 124.838L102.967 122.535L92.0971 96.3848L112.096 116.435L116.344 112.198L96.2593 92.0615L122.528 102.963L124.827 97.4214L98.5558 86.5183H127V80.5183H98.624L124.852 69.6863L122.561 64.1407L96.4456 74.9264L116.527 55.0501L112.307 50.7857L91.9757 70.9086L102.932 44.4842L97.3891 42.1862L86.5197 68.402L86.5557 40.0223L80.5557 40.0146L80.5195 68.5325L69.5732 42.199L64.0328 44.502L74.9019 70.6498L54.9043 50.6014L50.6563 54.8386L70.7417 74.9751L44.4727 64.073L42.1728 69.6147L68.4456 80.5183H40V86.5183H68.3781L42.1493 97.3509L44.4396 102.897L70.554 92.1113L50.4729 111.987L54.6937 116.251L75.0236 96.1294L64.0683 122.552L69.6107 124.85L80.4814 98.6316Z" fill="white"/>
</svg>
