<svg width="340" height="154" viewBox="0 0 340 154" fill="none" xmlns="http://www.w3.org/2000/svg">
<path d="M191.973 106.806C191.973 107.607 192.642 108.245 193.443 108.207L205.313 107.64C206.061 107.604 206.649 106.987 206.649 106.238V68.7278C206.649 67.9308 205.986 67.2939 205.19 67.3258L193.32 67.8006C192.567 67.8307 191.973 68.4495 191.973 69.2026V106.806Z" fill="white"/>
<path d="M193.818 60.3066C195.271 61.7602 197.088 62.4871 199.269 62.4871C201.561 62.4871 203.406 61.7602 204.804 60.3066C206.258 58.797 206.985 56.924 206.985 54.6876C206.985 52.5071 206.258 50.6621 204.804 49.1525C203.406 47.643 201.561 46.8882 199.269 46.8882C197.088 46.8882 195.271 47.643 193.818 49.1525C192.364 50.6621 191.637 52.5071 191.637 54.6876C191.637 56.924 192.364 58.797 193.818 60.3066Z" fill="white"/>
<path fill-rule="evenodd" clip-rule="evenodd" d="M156.658 84.2081V104.596C156.658 105.272 156.177 105.851 155.513 105.976L143.307 108.257C142.444 108.419 141.646 107.756 141.646 106.878V50.2202C141.646 49.4453 142.275 48.8171 143.05 48.8171H166.974C170.999 48.8171 174.522 49.5719 177.541 51.0814C180.616 52.591 183.02 54.6597 184.753 57.2874C186.486 59.9152 187.353 62.9903 187.353 66.5126C187.353 70.0349 186.458 73.1379 184.669 75.8216C182.936 78.4494 180.504 80.5181 177.373 82.0276C176.019 82.6565 174.565 83.1493 173.011 83.5061L188.932 105.176C189.707 106.231 188.743 107.679 187.471 107.371L174.311 104.18C174.012 104.107 173.746 103.939 173.552 103.7L157.732 84.2081H156.658ZM156.658 73.4734H164.877C167.337 73.4734 169.21 72.8863 170.496 71.7122C171.838 70.4822 172.509 68.8329 172.509 66.7642C172.509 64.7514 171.838 63.13 170.496 61.9C169.21 60.6141 167.337 59.9711 164.877 59.9711H156.658V73.4734Z" fill="white"/>
<path d="M226.558 109.451C224.042 109.451 221.554 109.116 219.094 108.445C216.69 107.774 214.425 106.88 212.301 105.761C210.676 104.839 209.241 103.813 207.995 102.684C207.433 102.175 207.44 101.305 207.971 100.762L213.972 94.6348C214.526 94.0691 215.434 94.0798 216.038 94.5918C217.139 95.5247 218.381 96.2847 219.765 96.8717C221.666 97.6545 223.678 98.0458 225.803 98.0458C227.033 98.0458 227.956 97.8781 228.571 97.5427C229.242 97.2072 229.577 96.732 229.577 96.1169C229.577 95.2224 229.102 94.5515 228.151 94.1042C227.257 93.601 226.055 93.1817 224.545 92.8462C223.091 92.4548 221.554 92.0076 219.933 91.5044C218.311 90.9453 216.746 90.2184 215.236 89.3239C213.726 88.4293 212.496 87.1713 211.546 85.55C210.651 83.9286 210.204 81.8599 210.204 79.3439C210.204 76.7162 210.903 74.4239 212.301 72.467C213.754 70.4543 215.767 68.8888 218.339 67.7706C220.911 66.5965 223.93 66.0094 227.396 66.0094C230.919 66.0094 234.273 66.6244 237.46 67.8544C240.171 68.853 242.893 70.7875 244.851 72.8226C245.398 73.392 245.291 74.2983 244.664 74.78L237.723 80.1195C237.139 80.5684 236.318 80.4774 235.771 79.9848C234.818 79.1269 233.917 78.6802 232.68 78.2537C231.059 77.6387 229.577 77.3312 228.235 77.3312C226.949 77.3312 226.027 77.5269 225.468 77.9182C224.909 78.2537 224.629 78.7289 224.629 79.3439C224.629 80.0708 225.076 80.6578 225.971 81.1051C226.921 81.5524 228.123 81.9717 229.577 82.3631C231.087 82.6985 232.624 83.1458 234.19 83.7049C235.811 84.264 237.348 85.0468 238.802 86.0531C240.312 87.0036 241.514 88.2895 242.408 89.9109C243.359 91.5323 243.834 93.629 243.834 96.2008C243.834 100.282 242.269 103.525 239.138 105.929C236.007 108.277 231.813 109.451 226.558 109.451Z" fill="white"/>
<path fill-rule="evenodd" clip-rule="evenodd" d="M254.795 106.516C258.318 108.305 262.371 109.2 266.956 109.2C270.59 109.2 273.833 108.613 276.684 107.439C279.172 106.434 281.332 105.02 283.164 103.197C283.689 102.676 283.658 101.832 283.135 101.309L277.49 95.6649C276.917 95.0921 275.985 95.1293 275.385 95.6735C274.425 96.5442 273.376 97.2231 272.239 97.7104C270.73 98.3813 268.969 98.7168 266.956 98.7168C264.831 98.7168 263.042 98.2974 261.589 97.4588C260.135 96.6201 259.017 95.3901 258.234 93.7687C258.042 93.3581 257.874 92.9274 257.729 92.4765L285.406 92.3481C286.048 92.3451 286.611 91.9085 286.737 91.2796C286.875 90.593 286.962 89.9691 287 89.4077C287.111 88.5132 287.167 87.6466 287.167 86.8079C287.167 82.8383 286.245 79.316 284.4 76.2409C282.611 73.11 280.095 70.6779 276.852 68.9447C273.665 67.1556 270.003 66.261 265.866 66.261C261.616 66.261 257.787 67.2115 254.376 69.1124C251.022 70.9574 248.366 73.5014 246.409 76.7441C244.452 79.931 243.474 83.5931 243.474 87.7304C243.474 91.9237 244.48 95.6417 246.493 98.8845C248.506 102.127 251.273 104.671 254.795 106.516ZM257.698 83.057C257.829 82.6395 257.979 82.2404 258.15 81.8599C258.877 80.2385 259.911 78.9805 261.253 78.086C262.595 77.1914 264.188 76.7441 266.033 76.7441C267.822 76.7441 269.304 77.1355 270.478 77.9182C271.652 78.701 272.547 79.8471 273.162 81.3567C273.364 81.8341 273.536 82.3567 273.677 82.9246L257.698 83.057Z" fill="white"/>
<path d="M269.862 60.4365V49.6123H272.614V60.4365H269.862ZM266.525 51.9033V49.5355H275.95V51.9033H266.525ZM276.433 60.4365V49.5355H278.417L282.599 55.8547H281.661L285.828 49.5355H287.811V60.4365H285.09V54.0865L285.52 54.2095L283.014 57.9765H281.23L278.74 54.2095L279.17 54.0865V60.4365H276.433Z" fill="white"/>
<path d="M69.9761 43.8148C69.9761 42.9826 70.5958 42.2806 71.4216 42.1774L81.3227 40.9397C82.3076 40.8166 83.1775 41.5846 83.1775 42.5772V75.1427C83.1775 76.1353 82.3076 76.9032 81.3227 76.7801L71.4216 75.5425C70.5958 75.4392 69.9761 74.7373 69.9761 73.905V43.8148Z" fill="white"/>
<path d="M50.1738 47.9403C50.1738 47.1081 50.7935 46.4061 51.6193 46.3028L61.5204 45.0652C62.5054 44.9421 63.3753 45.7101 63.3753 46.7027V72.6674C63.3753 73.66 62.5054 74.4279 61.5204 74.3048L51.6193 73.0672C50.7935 72.964 50.1738 72.262 50.1738 71.4297V47.9403Z" fill="white"/>
<path d="M101.73 43.6958C102.464 43.8794 102.98 44.5395 102.98 45.2967V59.0534C102.98 59.8856 102.36 60.5876 101.534 60.6908L91.6331 61.9284C90.6482 62.0516 89.7783 61.2836 89.7783 60.291V42.8214C89.7783 41.7478 90.7872 40.9601 91.8287 41.2205L101.73 43.6958Z" fill="white"/>
<path d="M121.132 49.4221C121.132 48.6649 120.616 48.0049 119.882 47.8212L109.981 45.346C108.939 45.0856 107.93 45.8733 107.93 46.9469V59.4659C107.93 60.4585 108.8 61.2265 109.785 61.1033L119.686 59.8657C120.512 59.7625 121.132 59.0605 121.132 58.2283V49.4221Z" fill="white"/>
<path d="M121.132 66.2858L88.9532 67.1109C89.4188 73.1634 94.4658 77.8371 100.536 77.8371H107.93V84.8599L50.1738 79.4872V113.89L121.132 108.939V66.2858Z" fill="white"/>
</svg>
